<svg width="29" height="29" viewBox="0 0 29 29" fill="none" xmlns="http://www.w3.org/2000/svg">
<path d="M14.5 0C12.5959 0 10.7103 0.375094 8.95106 1.10374C7.19183 1.83247 5.59344 2.9005 4.24693 4.24693C2.9005 5.59344 1.83247 7.19183 1.10374 8.95106C0.375094 10.7103 0 12.5959 0 14.5C0 16.4041 0.375094 18.2897 1.10374 20.0489C1.83247 21.8082 2.9005 23.4066 4.24693 24.7531C5.59344 26.0995 7.19183 27.1675 8.95106 27.8963C10.7103 28.6249 12.5959 29 14.5 29V21.75C13.5479 21.75 12.6051 21.5625 11.7255 21.1981C10.8459 20.8338 10.0467 20.2998 9.37346 19.6265C8.70025 18.9533 8.16623 18.1541 7.80191 17.2745C7.43751 16.3949 7.25 15.4521 7.25 14.5C7.25 13.5479 7.43751 12.6051 7.80191 11.7255C8.16623 10.8459 8.70025 10.0467 9.37346 9.37346C10.0467 8.70025 10.8459 8.16623 11.7255 7.80191C12.6051 7.43751 13.5479 7.25 14.5 7.25V0Z" fill="#DB1A5A"/>
<path d="M14.5003 19.3333C17.1697 19.3333 19.3336 17.1694 19.3336 14.5C19.3336 11.8306 17.1697 9.66669 14.5003 9.66669C11.8309 9.66669 9.66699 11.8306 9.66699 14.5C9.66699 17.1694 11.8309 19.3333 14.5003 19.3333Z" fill="#DB1A5A"/>
<path d="M0 14.5C0 16.4041 0.375094 18.2897 1.10374 20.0489C1.83247 21.8082 2.9005 23.4066 4.24693 24.7531C5.59344 26.0995 7.19183 27.1675 8.95106 27.8963C10.7103 28.6249 12.5959 29 14.5 29C16.4041 29 18.2897 28.6249 20.0489 27.8963C21.8082 27.1675 23.4066 26.0995 24.7531 24.7531C26.0995 23.4066 27.1675 21.8082 27.8963 20.0489C28.6249 18.2897 29 16.4041 29 14.5H21.75C21.75 15.4521 21.5625 16.3949 21.1981 17.2745C20.8338 18.1541 20.2998 18.9533 19.6265 19.6265C18.9533 20.2998 18.1541 20.8338 17.2745 21.1981C16.3949 21.5625 15.4521 21.75 14.5 21.75C13.5479 21.75 12.6051 21.5625 11.7255 21.1981C10.8459 20.8338 10.0467 20.2998 9.37346 19.6265C8.70025 18.9533 8.16623 18.1541 7.80191 17.2745C7.43751 16.3949 7.25 15.4521 7.25 14.5H0Z" fill="white"/>
<path d="M19.3337 14.5C19.3337 13.2181 18.8244 11.9888 17.9181 11.0823C17.0116 10.1759 15.7823 9.66663 14.5004 9.66663C13.2185 9.66663 11.9891 10.1759 11.0827 11.0823C10.1762 11.9888 9.66699 13.2181 9.66699 14.5H14.5004H19.3337Z" fill="white"/>
</svg>
